<svg xmlns="http://www.w3.org/2000/svg" width="1200" height="630" viewBox="0 0 1200 630" role="img" aria-label="Mahira Karate Classes website preview image">
  <rect width="1200" height="630" fill="#071A3D"/>
  <path d="M0 440 1200 310v320H0z" fill="#0B3D91"/>
  <circle cx="900" cy="170" r="150" fill="#FACC15" opacity=".2"/>
  <path d="M745 180c-90 18-145 78-172 178l-220 25c-45 5-69 54-46 93 15 25 45 38 73 31l252-60 58 100H535c-48 0-87 39-87 87v20h459c44 0 76-42 64-84l-37-125 135 41 52 76h79V430l-184-91-170-42c-16-73-52-117-101-117z" fill="#fff" opacity=".9"/>
  <circle cx="745" cy="108" r="54" fill="#fff" opacity=".9"/>
</svg>
